<?xml version="1.0" encoding="UTF-8"?>
<!DOCTYPE score-partwise PUBLIC "-//Recordare//DTD MusicXML 3.0 Partwise//EN" "http://www.musicxml.org/dtds/partwise.dtd">
<score-partwise>
  <identification>
    <encoding>
      <software>MuseScore 2.0.3</software>
      <encoding-date>2017-05-24</encoding-date>
      <supports element="accidental" type="yes"/>
      <supports element="beam" type="yes"/>
      <supports element="print" attribute="new-page" type="yes" value="yes"/>
      <supports element="print" attribute="new-system" type="yes" value="yes"/>
      <supports element="stem" type="yes"/>
      </encoding>
    </identification>
  <defaults>
    <scaling>
      <millimeters>7.05556</millimeters>
      <tenths>40</tenths>
      </scaling>
    <page-layout>
      <page-height>1584</page-height>
      <page-width>1224</page-width>
      <page-margins type="even">
        <left-margin>56.6929</left-margin>
        <right-margin>56.6929</right-margin>
        <top-margin>56.6929</top-margin>
        <bottom-margin>113.386</bottom-margin>
        </page-margins>
      <page-margins type="odd">
        <left-margin>56.6929</left-margin>
        <right-margin>56.6929</right-margin>
        <top-margin>56.6929</top-margin>
        <bottom-margin>113.386</bottom-margin>
        </page-margins>
      </page-layout>
    <word-font font-family="FreeSerif" font-size="10"/>
    <lyric-font font-family="FreeSerif" font-size="11"/>
    </defaults>
  <credit page="1">
    <credit-words default-x="612" default-y="1527.31" justify="center" valign="top" font-size="24">Laberinto</credit-words>
    </credit>
  <part-list>
    <score-part id="P1">
      <part-name>Acoustic Guitar</part-name>
      <part-abbreviation>Guit.</part-abbreviation>
      <score-instrument id="P1-I1">
        <instrument-name>Acoustic Guitar</instrument-name>
        </score-instrument>
      <midi-device id="P1-I1" port="1"></midi-device>
      <midi-instrument id="P1-I1">
        <midi-channel>1</midi-channel>
        <midi-program>26</midi-program>
        <volume>78.7402</volume>
        <pan>0</pan>
        </midi-instrument>
      </score-part>
    <score-part id="P2">
      <part-name>Acoustic Guitar</part-name>
      <part-abbreviation>Guit.</part-abbreviation>
      <score-instrument id="P2-I1">
        <instrument-name>Acoustic Guitar [Tablature]</instrument-name>
        </score-instrument>
      <midi-device id="P2-I1" port="1"></midi-device>
      <midi-instrument id="P2-I1">
        <midi-channel>2</midi-channel>
        <midi-program>26</midi-program>
        <volume>78.7402</volume>
        <pan>0</pan>
        </midi-instrument>
      </score-part>
    <score-part id="P3">
      <part-name>Acoustic Guitar</part-name>
      <part-abbreviation>Guit.</part-abbreviation>
      <score-instrument id="P3-I1">
        <instrument-name>Acoustic Guitar [Tablature]</instrument-name>
        </score-instrument>
      <midi-device id="P3-I1" port="1"></midi-device>
      <midi-instrument id="P3-I1">
        <midi-channel>3</midi-channel>
        <midi-program>26</midi-program>
        <volume>78.7402</volume>
        <pan>0</pan>
        </midi-instrument>
      </score-part>
    </part-list>
  <part id="P1">
    <measure number="1" width="159.27">
      <print>
        <system-layout>
          <system-margins>
            <left-margin>158.00</left-margin>
            <right-margin>0.00</right-margin>
            </system-margins>
          <top-system-distance>170.00</top-system-distance>
          </system-layout>
        </print>
      <attributes>
        <divisions>1</divisions>
        <key>
          <fifths>0</fifths>
          </key>
        <time>
          <beats>4</beats>
          <beat-type>4</beat-type>
          </time>
        <clef>
          <sign>G</sign>
          <line>2</line>
          <clef-octave-change>-1</clef-octave-change>
          </clef>
        </attributes>
      <note default-x="76.78" default-y="-55.00">
        <pitch>
          <step>B</step>
          <octave>2</octave>
          </pitch>
        <duration>4</duration>
        <voice>1</voice>
        <type>whole</type>
        <lyric number="1">
          <syllabic>single</syllabic>
          <text>e,+:0</text>
          </lyric>
        </note>
      <note default-x="76.78" default-y="-40.00">
        <chord/>
        <pitch>
          <step>E</step>
          <octave>3</octave>
          </pitch>
        <duration>4</duration>
        <voice>1</voice>
        <type>whole</type>
        </note>
      <note default-x="76.78" default-y="-30.00">
        <chord/>
        <pitch>
          <step>G</step>
          <octave>3</octave>
          </pitch>
        <duration>4</duration>
        <voice>1</voice>
        <type>whole</type>
        </note>
      <note default-x="76.78" default-y="-20.00">
        <chord/>
        <pitch>
          <step>B</step>
          <octave>3</octave>
          </pitch>
        <duration>4</duration>
        <voice>1</voice>
        <type>whole</type>
        </note>
      <note default-x="76.78" default-y="-5.00">
        <chord/>
        <pitch>
          <step>E</step>
          <octave>4</octave>
          </pitch>
        <duration>4</duration>
        <voice>1</voice>
        <type>whole</type>
        </note>
      </measure>
    <measure number="2" width="102.19">
      <note default-x="22.10" default-y="-55.00">
        <pitch>
          <step>B</step>
          <octave>2</octave>
          </pitch>
        <duration>4</duration>
        <voice>1</voice>
        <type>whole</type>
        <lyric number="1">
          <syllabic>single</syllabic>
          <text>G,A:0</text>
          </lyric>
        </note>
      <note default-x="22.10" default-y="-45.00">
        <chord/>
        <pitch>
          <step>D</step>
          <octave>3</octave>
          </pitch>
        <duration>4</duration>
        <voice>1</voice>
        <type>whole</type>
        </note>
      <note default-x="22.10" default-y="-30.00">
        <chord/>
        <pitch>
          <step>G</step>
          <octave>3</octave>
          </pitch>
        <duration>4</duration>
        <voice>1</voice>
        <type>whole</type>
        </note>
      <note default-x="22.10" default-y="-10.00">
        <chord/>
        <pitch>
          <step>D</step>
          <octave>4</octave>
          </pitch>
        <duration>4</duration>
        <voice>1</voice>
        <type>whole</type>
        </note>
      <note default-x="22.10" default-y="5.00">
        <chord/>
        <pitch>
          <step>G</step>
          <octave>4</octave>
          </pitch>
        <duration>4</duration>
        <voice>1</voice>
        <type>whole</type>
        </note>
      </measure>
    <measure number="3" width="98.19">
      <note default-x="21.10" default-y="-50.00">
        <pitch>
          <step>C</step>
          <octave>3</octave>
          </pitch>
        <duration>4</duration>
        <voice>1</voice>
        <type>whole</type>
        <lyric number="1">
          <syllabic>single</syllabic>
          <text>C,B:1</text>
          </lyric>
        </note>
      <note default-x="21.10" default-y="-40.00">
        <chord/>
        <pitch>
          <step>E</step>
          <octave>3</octave>
          </pitch>
        <duration>4</duration>
        <voice>1</voice>
        <type>whole</type>
        </note>
      <note default-x="21.10" default-y="-30.00">
        <chord/>
        <pitch>
          <step>G</step>
          <octave>3</octave>
          </pitch>
        <duration>4</duration>
        <voice>1</voice>
        <type>whole</type>
        </note>
      <note default-x="21.10" default-y="-15.00">
        <chord/>
        <pitch>
          <step>C</step>
          <octave>4</octave>
          </pitch>
        <duration>4</duration>
        <voice>1</voice>
        <type>whole</type>
        </note>
      <note default-x="21.10" default-y="-5.00">
        <chord/>
        <pitch>
          <step>E</step>
          <octave>4</octave>
          </pitch>
        <duration>4</duration>
        <voice>1</voice>
        <type>whole</type>
        </note>
      </measure>
    <measure number="4" width="97.51">
      <note default-x="18.42" default-y="-60.00">
        <pitch>
          <step>A</step>
          <octave>2</octave>
          </pitch>
        <duration>4</duration>
        <voice>1</voice>
        <type>whole</type>
        <lyric number="1">
          <syllabic>single</syllabic>
          <text>D,C:0</text>
          </lyric>
        </note>
      <note default-x="18.42" default-y="-45.00">
        <chord/>
        <pitch>
          <step>D</step>
          <octave>3</octave>
          </pitch>
        <duration>4</duration>
        <voice>1</voice>
        <type>whole</type>
        </note>
      <note default-x="18.42" default-y="-25.00">
        <chord/>
        <pitch>
          <step>A</step>
          <octave>3</octave>
          </pitch>
        <duration>4</duration>
        <voice>1</voice>
        <type>whole</type>
        </note>
      <note default-x="18.42" default-y="-10.00">
        <chord/>
        <pitch>
          <step>D</step>
          <octave>4</octave>
          </pitch>
        <duration>4</duration>
        <voice>1</voice>
        <type>whole</type>
        </note>
      <note default-x="18.42" default-y="0.00">
        <chord/>
        <pitch>
          <step>F</step>
          <alter>1</alter>
          <octave>4</octave>
          </pitch>
        <duration>4</duration>
        <voice>1</voice>
        <type>whole</type>
        <accidental>sharp</accidental>
        </note>
      </measure>
    <measure number="5" width="102.19">
      <note default-x="22.10" default-y="-60.00">
        <pitch>
          <step>A</step>
          <octave>2</octave>
          </pitch>
        <duration>4</duration>
        <voice>1</voice>
        <type>whole</type>
        <lyric number="1">
          <syllabic>single</syllabic>
          <text>A,D:1</text>
          </lyric>
        </note>
      <note default-x="22.10" default-y="-40.00">
        <chord/>
        <pitch>
          <step>E</step>
          <octave>3</octave>
          </pitch>
        <duration>4</duration>
        <voice>1</voice>
        <type>whole</type>
        </note>
      <note default-x="22.10" default-y="-25.00">
        <chord/>
        <pitch>
          <step>A</step>
          <octave>3</octave>
          </pitch>
        <duration>4</duration>
        <voice>1</voice>
        <type>whole</type>
        </note>
      <note default-x="22.10" default-y="-15.00">
        <chord/>
        <pitch>
          <step>C</step>
          <octave>4</octave>
          </pitch>
        <duration>4</duration>
        <voice>1</voice>
        <type>whole</type>
        </note>
      <note default-x="22.10" default-y="-5.00">
        <chord/>
        <pitch>
          <step>E</step>
          <octave>4</octave>
          </pitch>
        <duration>4</duration>
        <voice>1</voice>
        <type>whole</type>
        </note>
      </measure>
    <measure number="6" width="94.19">
      <note default-x="18.10" default-y="-60.00">
        <pitch>
          <step>A</step>
          <octave>2</octave>
          </pitch>
        <duration>4</duration>
        <voice>1</voice>
        <type>whole</type>
        <lyric number="1">
          <syllabic>single</syllabic>
          <text>d,E:1</text>
          </lyric>
        </note>
      <note default-x="18.10" default-y="-45.00">
        <chord/>
        <pitch>
          <step>D</step>
          <octave>3</octave>
          </pitch>
        <duration>4</duration>
        <voice>1</voice>
        <type>whole</type>
        </note>
      <note default-x="18.10" default-y="-25.00">
        <chord/>
        <pitch>
          <step>A</step>
          <octave>3</octave>
          </pitch>
        <duration>4</duration>
        <voice>1</voice>
        <type>whole</type>
        </note>
      <note default-x="18.10" default-y="-10.00">
        <chord/>
        <pitch>
          <step>D</step>
          <octave>4</octave>
          </pitch>
        <duration>4</duration>
        <voice>1</voice>
        <type>whole</type>
        </note>
      <note default-x="18.10" default-y="0.00">
        <chord/>
        <pitch>
          <step>F</step>
          <octave>4</octave>
          </pitch>
        <duration>4</duration>
        <voice>1</voice>
        <type>whole</type>
        </note>
      </measure>
    <measure number="7" width="97.51">
      <note default-x="18.42" default-y="-55.00">
        <pitch>
          <step>B</step>
          <octave>2</octave>
          </pitch>
        <duration>4</duration>
        <voice>1</voice>
        <type>whole</type>
        <lyric number="1">
          <syllabic>single</syllabic>
          <text>E,F:1</text>
          </lyric>
        </note>
      <note default-x="18.42" default-y="-40.00">
        <chord/>
        <pitch>
          <step>E</step>
          <octave>3</octave>
          </pitch>
        <duration>4</duration>
        <voice>1</voice>
        <type>whole</type>
        </note>
      <note default-x="18.42" default-y="-30.00">
        <chord/>
        <pitch>
          <step>G</step>
          <alter>1</alter>
          <octave>3</octave>
          </pitch>
        <duration>4</duration>
        <voice>1</voice>
        <type>whole</type>
        <accidental>sharp</accidental>
        </note>
      <note default-x="18.42" default-y="-20.00">
        <chord/>
        <pitch>
          <step>B</step>
          <octave>3</octave>
          </pitch>
        <duration>4</duration>
        <voice>1</voice>
        <type>whole</type>
        </note>
      <note default-x="18.42" default-y="-5.00">
        <chord/>
        <pitch>
          <step>E</step>
          <octave>4</octave>
          </pitch>
        <duration>4</duration>
        <voice>1</voice>
        <type>whole</type>
        </note>
      </measure>
    <measure number="8" width="98.19">
      <note default-x="20.10" default-y="-50.00">
        <pitch>
          <step>C</step>
          <octave>3</octave>
          </pitch>
        <duration>4</duration>
        <voice>1</voice>
        <type>whole</type>
        <lyric number="1">
          <syllabic>single</syllabic>
          <text>F,G:1</text>
          </lyric>
        </note>
      <note default-x="20.10" default-y="-35.00">
        <chord/>
        <pitch>
          <step>F</step>
          <octave>3</octave>
          </pitch>
        <duration>4</duration>
        <voice>1</voice>
        <type>whole</type>
        </note>
      <note default-x="20.10" default-y="-25.00">
        <chord/>
        <pitch>
          <step>A</step>
          <octave>3</octave>
          </pitch>
        <duration>4</duration>
        <voice>1</voice>
        <type>whole</type>
        </note>
      <note default-x="20.10" default-y="-15.00">
        <chord/>
        <pitch>
          <step>C</step>
          <octave>4</octave>
          </pitch>
        <duration>4</duration>
        <voice>1</voice>
        <type>whole</type>
        </note>
      <note default-x="20.10" default-y="0.00">
        <chord/>
        <pitch>
          <step>F</step>
          <octave>4</octave>
          </pitch>
        <duration>4</duration>
        <voice>1</voice>
        <type>whole</type>
        </note>
      </measure>
    <measure number="9" width="103.36">
      <note default-x="18.27" default-y="-55.00">
        <pitch>
          <step>B</step>
          <alter>-1</alter>
          <octave>2</octave>
          </pitch>
        <duration>4</duration>
        <voice>1</voice>
        <type>whole</type>
        <accidental>flat</accidental>
        <lyric number="1">
          <syllabic>single</syllabic>
          <text>Bb,H:1</text>
          </lyric>
        </note>
      <note default-x="18.27" default-y="-35.00">
        <chord/>
        <pitch>
          <step>F</step>
          <octave>3</octave>
          </pitch>
        <duration>4</duration>
        <voice>1</voice>
        <type>whole</type>
        </note>
      <note default-x="18.27" default-y="-20.00">
        <chord/>
        <pitch>
          <step>B</step>
          <alter>-1</alter>
          <octave>3</octave>
          </pitch>
        <duration>4</duration>
        <voice>1</voice>
        <type>whole</type>
        <accidental>flat</accidental>
        </note>
      <note default-x="18.27" default-y="-10.00">
        <chord/>
        <pitch>
          <step>D</step>
          <octave>4</octave>
          </pitch>
        <duration>4</duration>
        <voice>1</voice>
        <type>whole</type>
        </note>
      <note default-x="18.27" default-y="0.00">
        <chord/>
        <pitch>
          <step>F</step>
          <octave>4</octave>
          </pitch>
        <duration>4</duration>
        <voice>1</voice>
        <type>whole</type>
        </note>
      </measure>
    <measure number="10" width="143.12">
      <print new-system="yes">
        <system-layout>
          <system-margins>
            <left-margin>58.00</left-margin>
            <right-margin>0.00</right-margin>
            </system-margins>
          <system-distance>150.00</system-distance>
          </system-layout>
        </print>
      <note default-x="66.09" default-y="-60.00">
        <pitch>
          <step>A</step>
          <octave>2</octave>
          </pitch>
        <duration>4</duration>
        <voice>1</voice>
        <type>whole</type>
        <lyric number="1">
          <syllabic>single</syllabic>
          <text>A,I:0</text>
          </lyric>
        </note>
      <note default-x="66.09" default-y="-40.00">
        <chord/>
        <pitch>
          <step>E</step>
          <octave>3</octave>
          </pitch>
        <duration>4</duration>
        <voice>1</voice>
        <type>whole</type>
        </note>
      <note default-x="66.09" default-y="-25.00">
        <chord/>
        <pitch>
          <step>A</step>
          <octave>3</octave>
          </pitch>
        <duration>4</duration>
        <voice>1</voice>
        <type>whole</type>
        </note>
      <note default-x="66.09" default-y="-15.00">
        <chord/>
        <pitch>
          <step>C</step>
          <alter>1</alter>
          <octave>4</octave>
          </pitch>
        <duration>4</duration>
        <voice>1</voice>
        <type>whole</type>
        <accidental>sharp</accidental>
        </note>
      <note default-x="66.09" default-y="-5.00">
        <chord/>
        <pitch>
          <step>E</step>
          <octave>4</octave>
          </pitch>
        <duration>4</duration>
        <voice>1</voice>
        <type>whole</type>
        </note>
      </measure>
    <measure number="11" width="115.96">
      <note default-x="29.34" default-y="-55.00">
        <pitch>
          <step>B</step>
          <alter>-1</alter>
          <octave>2</octave>
          </pitch>
        <duration>4</duration>
        <voice>1</voice>
        <type>whole</type>
        <accidental>flat</accidental>
        <lyric number="1">
          <syllabic>single</syllabic>
          <text>bb,K:1</text>
          </lyric>
        </note>
      <note default-x="29.34" default-y="-35.00">
        <chord/>
        <pitch>
          <step>F</step>
          <octave>3</octave>
          </pitch>
        <duration>4</duration>
        <voice>1</voice>
        <type>whole</type>
        </note>
      <note default-x="29.34" default-y="-20.00">
        <chord/>
        <pitch>
          <step>B</step>
          <alter>-1</alter>
          <octave>3</octave>
          </pitch>
        <duration>4</duration>
        <voice>1</voice>
        <type>whole</type>
        <accidental>flat</accidental>
        </note>
      <note default-x="29.34" default-y="-10.00">
        <chord/>
        <pitch>
          <step>D</step>
          <alter>-1</alter>
          <octave>4</octave>
          </pitch>
        <duration>4</duration>
        <voice>1</voice>
        <type>whole</type>
        <accidental>flat</accidental>
        </note>
      <note default-x="29.34" default-y="0.00">
        <chord/>
        <pitch>
          <step>F</step>
          <octave>4</octave>
          </pitch>
        <duration>4</duration>
        <voice>1</voice>
        <type>whole</type>
        </note>
      </measure>
    <measure number="12" width="95.71">
      <note default-x="16.27" default-y="-50.00">
        <pitch>
          <step>C</step>
          <octave>3</octave>
          </pitch>
        <duration>4</duration>
        <voice>1</voice>
        <type>whole</type>
        <lyric number="1">
          <syllabic>single</syllabic>
          <text>c,L:1</text>
          </lyric>
        </note>
      <note default-x="16.27" default-y="-40.00">
        <chord/>
        <pitch>
          <step>E</step>
          <alter>-1</alter>
          <octave>3</octave>
          </pitch>
        <duration>4</duration>
        <voice>1</voice>
        <type>whole</type>
        <accidental>flat</accidental>
        </note>
      <note default-x="16.27" default-y="-30.00">
        <chord/>
        <pitch>
          <step>G</step>
          <octave>3</octave>
          </pitch>
        <duration>4</duration>
        <voice>1</voice>
        <type>whole</type>
        </note>
      <note default-x="16.27" default-y="-5.00">
        <chord/>
        <pitch>
          <step>E</step>
          <alter>-1</alter>
          <octave>4</octave>
          </pitch>
        <duration>4</duration>
        <voice>1</voice>
        <type>whole</type>
        <accidental>flat</accidental>
        </note>
      <note default-x="16.27" default-y="5.00">
        <chord/>
        <pitch>
          <step>G</step>
          <octave>4</octave>
          </pitch>
        <duration>4</duration>
        <voice>1</voice>
        <type>whole</type>
        </note>
      </measure>
    <measure number="13" width="116.96">
      <note default-x="27.34" default-y="-55.00">
        <pitch>
          <step>B</step>
          <alter>-1</alter>
          <octave>2</octave>
          </pitch>
        <duration>4</duration>
        <voice>1</voice>
        <type>whole</type>
        <accidental>flat</accidental>
        <lyric number="1">
          <syllabic>single</syllabic>
          <text>Eb,M:1</text>
          </lyric>
        </note>
      <note default-x="27.34" default-y="-40.00">
        <chord/>
        <pitch>
          <step>E</step>
          <alter>-1</alter>
          <octave>3</octave>
          </pitch>
        <duration>4</duration>
        <voice>1</voice>
        <type>whole</type>
        <accidental>flat</accidental>
        </note>
      <note default-x="27.34" default-y="-20.00">
        <chord/>
        <pitch>
          <step>B</step>
          <alter>-1</alter>
          <octave>3</octave>
          </pitch>
        <duration>4</duration>
        <voice>1</voice>
        <type>whole</type>
        <accidental>flat</accidental>
        </note>
      <note default-x="27.34" default-y="-5.00">
        <chord/>
        <pitch>
          <step>E</step>
          <alter>-1</alter>
          <octave>4</octave>
          </pitch>
        <duration>4</duration>
        <voice>1</voice>
        <type>whole</type>
        <accidental>flat</accidental>
        </note>
      <note default-x="27.34" default-y="5.00">
        <chord/>
        <pitch>
          <step>G</step>
          <octave>4</octave>
          </pitch>
        <duration>4</duration>
        <voice>1</voice>
        <type>whole</type>
        </note>
      </measure>
    <measure number="14" width="140.03">
      <note default-x="40.41" default-y="-55.00">
        <pitch>
          <step>B</step>
          <alter>-1</alter>
          <octave>2</octave>
          </pitch>
        <duration>4</duration>
        <voice>1</voice>
        <type>whole</type>
        <accidental>flat</accidental>
        <lyric number="1">
          <syllabic>single</syllabic>
          <text>eb,M+:1</text>
          </lyric>
        </note>
      <note default-x="40.41" default-y="-40.00">
        <chord/>
        <pitch>
          <step>E</step>
          <alter>-1</alter>
          <octave>3</octave>
          </pitch>
        <duration>4</duration>
        <voice>1</voice>
        <type>whole</type>
        <accidental>flat</accidental>
        </note>
      <note default-x="40.41" default-y="-20.00">
        <chord/>
        <pitch>
          <step>B</step>
          <alter>-1</alter>
          <octave>3</octave>
          </pitch>
        <duration>4</duration>
        <voice>1</voice>
        <type>whole</type>
        <accidental>flat</accidental>
        </note>
      <note default-x="40.41" default-y="-5.00">
        <chord/>
        <pitch>
          <step>E</step>
          <alter>-1</alter>
          <octave>4</octave>
          </pitch>
        <duration>4</duration>
        <voice>1</voice>
        <type>whole</type>
        <accidental>flat</accidental>
        </note>
      <note default-x="40.41" default-y="5.00">
        <chord/>
        <pitch>
          <step>G</step>
          <alter>-1</alter>
          <octave>4</octave>
          </pitch>
        <duration>4</duration>
        <voice>1</voice>
        <type>whole</type>
        <accidental>flat</accidental>
        </note>
      </measure>
    <measure number="15" width="117.96">
      <note default-x="29.34" default-y="-50.00">
        <pitch>
          <step>C</step>
          <octave>3</octave>
          </pitch>
        <duration>4</duration>
        <voice>1</voice>
        <type>whole</type>
        <lyric number="1">
          <syllabic>single</syllabic>
          <text>Ab,N:1</text>
          </lyric>
        </note>
      <note default-x="29.34" default-y="-40.00">
        <chord/>
        <pitch>
          <step>E</step>
          <alter>-1</alter>
          <octave>3</octave>
          </pitch>
        <duration>4</duration>
        <voice>1</voice>
        <type>whole</type>
        <accidental>flat</accidental>
        </note>
      <note default-x="29.34" default-y="-25.00">
        <chord/>
        <pitch>
          <step>A</step>
          <alter>-1</alter>
          <octave>3</octave>
          </pitch>
        <duration>4</duration>
        <voice>1</voice>
        <type>whole</type>
        <accidental>flat</accidental>
        </note>
      <note default-x="29.34" default-y="-15.00">
        <chord/>
        <pitch>
          <step>C</step>
          <octave>4</octave>
          </pitch>
        <duration>4</duration>
        <voice>1</voice>
        <type>whole</type>
        </note>
      <note default-x="29.34" default-y="10.00">
        <chord/>
        <pitch>
          <step>A</step>
          <alter>-1</alter>
          <octave>4</octave>
          </pitch>
        <duration>4</duration>
        <voice>1</voice>
        <type>whole</type>
        <accidental>flat</accidental>
        </note>
      </measure>
    <measure number="16" width="131.26">
      <note default-x="31.63" default-y="-55.00">
        <pitch>
          <step>B</step>
          <octave>2</octave>
          </pitch>
        <duration>4</duration>
        <voice>1</voice>
        <type>whole</type>
        <lyric number="1">
          <syllabic>single</syllabic>
          <text>G#,N+:1</text>
          </lyric>
        </note>
      <note default-x="31.63" default-y="-45.00">
        <chord/>
        <pitch>
          <step>D</step>
          <alter>1</alter>
          <octave>3</octave>
          </pitch>
        <duration>4</duration>
        <voice>1</voice>
        <type>whole</type>
        <accidental>sharp</accidental>
        </note>
      <note default-x="31.63" default-y="-30.00">
        <chord/>
        <pitch>
          <step>G</step>
          <alter>1</alter>
          <octave>3</octave>
          </pitch>
        <duration>4</duration>
        <voice>1</voice>
        <type>whole</type>
        <accidental>sharp</accidental>
        </note>
      <note default-x="31.63" default-y="-10.00">
        <chord/>
        <pitch>
          <step>D</step>
          <alter>1</alter>
          <octave>4</octave>
          </pitch>
        <duration>4</duration>
        <voice>1</voice>
        <type>whole</type>
        <accidental>sharp</accidental>
        </note>
      <note default-x="31.63" default-y="5.00">
        <chord/>
        <pitch>
          <step>G</step>
          <alter>1</alter>
          <octave>4</octave>
          </pitch>
        <duration>4</duration>
        <voice>1</voice>
        <type>whole</type>
        <accidental>sharp</accidental>
        </note>
      </measure>
    <measure number="17" width="97.90">
      <note default-x="18.27" default-y="-55.00">
        <pitch>
          <step>B</step>
          <alter>-1</alter>
          <octave>2</octave>
          </pitch>
        <duration>4</duration>
        <voice>1</voice>
        <type>whole</type>
        <accidental>flat</accidental>
        <lyric number="1">
          <syllabic>single</syllabic>
          <text>g,O:1</text>
          </lyric>
        </note>
      <note default-x="18.27" default-y="-45.00">
        <chord/>
        <pitch>
          <step>D</step>
          <octave>3</octave>
          </pitch>
        <duration>4</duration>
        <voice>1</voice>
        <type>whole</type>
        </note>
      <note default-x="18.27" default-y="-30.00">
        <chord/>
        <pitch>
          <step>G</step>
          <octave>3</octave>
          </pitch>
        <duration>4</duration>
        <voice>1</voice>
        <type>whole</type>
        </note>
      <note default-x="18.27" default-y="-10.00">
        <chord/>
        <pitch>
          <step>D</step>
          <octave>4</octave>
          </pitch>
        <duration>4</duration>
        <voice>1</voice>
        <type>whole</type>
        </note>
      <note default-x="18.27" default-y="5.00">
        <chord/>
        <pitch>
          <step>G</step>
          <octave>4</octave>
          </pitch>
        <duration>4</duration>
        <voice>1</voice>
        <type>whole</type>
        </note>
      </measure>
    <measure number="18" width="93.71">
      <note default-x="16.27" default-y="-50.00">
        <pitch>
          <step>C</step>
          <octave>3</octave>
          </pitch>
        <duration>4</duration>
        <voice>1</voice>
        <type>whole</type>
        <lyric number="1">
          <syllabic>single</syllabic>
          <text>f,P:1</text>
          </lyric>
        </note>
      <note default-x="16.27" default-y="-35.00">
        <chord/>
        <pitch>
          <step>F</step>
          <octave>3</octave>
          </pitch>
        <duration>4</duration>
        <voice>1</voice>
        <type>whole</type>
        </note>
      <note default-x="16.27" default-y="-25.00">
        <chord/>
        <pitch>
          <step>A</step>
          <alter>-1</alter>
          <octave>3</octave>
          </pitch>
        <duration>4</duration>
        <voice>1</voice>
        <type>whole</type>
        <accidental>flat</accidental>
        </note>
      <note default-x="16.27" default-y="-15.00">
        <chord/>
        <pitch>
          <step>C</step>
          <octave>4</octave>
          </pitch>
        <duration>4</duration>
        <voice>1</voice>
        <type>whole</type>
        </note>
      <note default-x="16.27" default-y="0.00">
        <chord/>
        <pitch>
          <step>F</step>
          <octave>4</octave>
          </pitch>
        <duration>4</duration>
        <voice>1</voice>
        <type>whole</type>
        </note>
      </measure>
    <measure number="19" width="535.20">
      <print new-system="yes">
        <system-layout>
          <system-margins>
            <left-margin>58.00</left-margin>
            <right-margin>0.00</right-margin>
            </system-margins>
          <system-distance>150.00</system-distance>
          </system-layout>
        </print>
      <note default-x="75.01" default-y="-45.00">
        <pitch>
          <step>D</step>
          <alter>-1</alter>
          <octave>3</octave>
          </pitch>
        <duration>4</duration>
        <voice>1</voice>
        <type>whole</type>
        <accidental>flat</accidental>
        <lyric number="1">
          <syllabic>single</syllabic>
          <text>Db,&amp;:1</text>
          </lyric>
        </note>
      <note default-x="75.01" default-y="-35.00">
        <chord/>
        <pitch>
          <step>F</step>
          <octave>3</octave>
          </pitch>
        <duration>4</duration>
        <voice>1</voice>
        <type>whole</type>
        </note>
      <note default-x="75.01" default-y="-25.00">
        <chord/>
        <pitch>
          <step>A</step>
          <alter>-1</alter>
          <octave>3</octave>
          </pitch>
        <duration>4</duration>
        <voice>1</voice>
        <type>whole</type>
        <accidental>flat</accidental>
        </note>
      <note default-x="75.01" default-y="-10.00">
        <chord/>
        <pitch>
          <step>D</step>
          <alter>-1</alter>
          <octave>4</octave>
          </pitch>
        <duration>4</duration>
        <voice>1</voice>
        <type>whole</type>
        <accidental>flat</accidental>
        </note>
      <note default-x="75.01" default-y="0.00">
        <chord/>
        <pitch>
          <step>F</step>
          <octave>4</octave>
          </pitch>
        <duration>4</duration>
        <voice>1</voice>
        <type>whole</type>
        </note>
      </measure>
    <measure number="20" width="517.42">
      <note default-x="33.63" default-y="-50.00">
        <pitch>
          <step>C</step>
          <alter>1</alter>
          <octave>3</octave>
          </pitch>
        <duration>4</duration>
        <voice>1</voice>
        <type>whole</type>
        <accidental>sharp</accidental>
        <lyric number="1">
          <syllabic>single</syllabic>
          <text>c#,&amp;+:1</text>
          </lyric>
        </note>
      <note default-x="33.63" default-y="-40.00">
        <chord/>
        <pitch>
          <step>E</step>
          <octave>3</octave>
          </pitch>
        <duration>4</duration>
        <voice>1</voice>
        <type>whole</type>
        </note>
      <note default-x="33.63" default-y="-30.00">
        <chord/>
        <pitch>
          <step>G</step>
          <alter>1</alter>
          <octave>3</octave>
          </pitch>
        <duration>4</duration>
        <voice>1</voice>
        <type>whole</type>
        <accidental>sharp</accidental>
        </note>
      <note default-x="33.63" default-y="-15.00">
        <chord/>
        <pitch>
          <step>C</step>
          <alter>1</alter>
          <octave>4</octave>
          </pitch>
        <duration>4</duration>
        <voice>1</voice>
        <type>whole</type>
        <accidental>sharp</accidental>
        </note>
      <note default-x="33.63" default-y="-5.00">
        <chord/>
        <pitch>
          <step>E</step>
          <octave>4</octave>
          </pitch>
        <duration>4</duration>
        <voice>1</voice>
        <type>whole</type>
        </note>
      <barline location="right">
        <bar-style>light-heavy</bar-style>
        </barline>
      </measure>
    </part>
  <part id="P2">
    <measure number="1" width="159.27">
      <print>
        <staff-layout number="1">
          <staff-distance>80.00</staff-distance>
          </staff-layout>
        </print>
      <attributes>
        <divisions>1</divisions>
        <key>
          <fifths>0</fifths>
          </key>
        <time>
          <beats>4</beats>
          <beat-type>4</beat-type>
          </time>
        <clef>
          <sign>TAB</sign>
          <line>5</line>
          </clef>
        <staff-details>
          <staff-lines>5</staff-lines>
          <staff-tuning line="1">
            <tuning-step>E</tuning-step>
            <tuning-octave>2</tuning-octave>
            </staff-tuning>
          <staff-tuning line="2">
            <tuning-step>A</tuning-step>
            <tuning-octave>2</tuning-octave>
            </staff-tuning>
          <staff-tuning line="3">
            <tuning-step>D</tuning-step>
            <tuning-octave>3</tuning-octave>
            </staff-tuning>
          <staff-tuning line="4">
            <tuning-step>G</tuning-step>
            <tuning-octave>3</tuning-octave>
            </staff-tuning>
          <staff-tuning line="5">
            <tuning-step>B</tuning-step>
            <tuning-octave>3</tuning-octave>
            </staff-tuning>
          <staff-tuning line="6">
            <tuning-step>E</tuning-step>
            <tuning-octave>4</tuning-octave>
            </staff-tuning>
          </staff-details>
        </attributes>
      <note default-x="82.60" default-y="-180.00">
        <pitch>
          <step>B</step>
          <octave>2</octave>
          </pitch>
        <duration>4</duration>
        <voice>1</voice>
        <type>whole</type>
        <stem>none</stem>
        <notations>
          <technical>
            <string>5</string>
            <fret>2</fret>
            </technical>
          </notations>
        <lyric number="1">
          <syllabic>single</syllabic>
          <text>+</text>
          </lyric>
        </note>
      <note default-x="82.60" default-y="-165.00">
        <chord/>
        <pitch>
          <step>E</step>
          <octave>3</octave>
          </pitch>
        <duration>4</duration>
        <voice>1</voice>
        <type>whole</type>
        <stem>none</stem>
        <notations>
          <technical>
            <string>4</string>
            <fret>2</fret>
            </technical>
          </notations>
        </note>
      <note default-x="82.60" default-y="-150.00">
        <chord/>
        <pitch>
          <step>G</step>
          <octave>3</octave>
          </pitch>
        <duration>4</duration>
        <voice>1</voice>
        <type>whole</type>
        <stem>none</stem>
        <notations>
          <technical>
            <string>3</string>
            <fret>0</fret>
            </technical>
          </notations>
        </note>
      <note default-x="82.60" default-y="-135.00">
        <chord/>
        <pitch>
          <step>B</step>
          <octave>3</octave>
          </pitch>
        <duration>4</duration>
        <voice>1</voice>
        <type>whole</type>
        <stem>none</stem>
        <notations>
          <technical>
            <string>2</string>
            <fret>0</fret>
            </technical>
          </notations>
        </note>
      <note default-x="82.60" default-y="-120.00">
        <chord/>
        <pitch>
          <step>E</step>
          <octave>4</octave>
          </pitch>
        <duration>4</duration>
        <voice>1</voice>
        <type>whole</type>
        <stem>none</stem>
        <notations>
          <technical>
            <string>1</string>
            <fret>0</fret>
            </technical>
          </notations>
        </note>
      </measure>
    <measure number="2" width="102.19">
      <note default-x="27.92" default-y="-180.00">
        <pitch>
          <step>B</step>
          <octave>2</octave>
          </pitch>
        <duration>4</duration>
        <voice>1</voice>
        <type>whole</type>
        <stem>none</stem>
        <notations>
          <technical>
            <string>5</string>
            <fret>2</fret>
            </technical>
          </notations>
        <lyric number="1">
          <syllabic>single</syllabic>
          <text>A</text>
          </lyric>
        </note>
      <note default-x="27.92" default-y="-165.00">
        <chord/>
        <pitch>
          <step>D</step>
          <octave>3</octave>
          </pitch>
        <duration>4</duration>
        <voice>1</voice>
        <type>whole</type>
        <stem>none</stem>
        <notations>
          <technical>
            <string>4</string>
            <fret>0</fret>
            </technical>
          </notations>
        </note>
      <note default-x="27.92" default-y="-150.00">
        <chord/>
        <pitch>
          <step>G</step>
          <octave>3</octave>
          </pitch>
        <duration>4</duration>
        <voice>1</voice>
        <type>whole</type>
        <stem>none</stem>
        <notations>
          <technical>
            <string>3</string>
            <fret>0</fret>
            </technical>
          </notations>
        </note>
      <note default-x="27.92" default-y="-135.00">
        <chord/>
        <pitch>
          <step>D</step>
          <octave>4</octave>
          </pitch>
        <duration>4</duration>
        <voice>1</voice>
        <type>whole</type>
        <stem>none</stem>
        <notations>
          <technical>
            <string>2</string>
            <fret>3</fret>
            </technical>
          </notations>
        </note>
      <note default-x="27.92" default-y="-120.00">
        <chord/>
        <pitch>
          <step>G</step>
          <octave>4</octave>
          </pitch>
        <duration>4</duration>
        <voice>1</voice>
        <type>whole</type>
        <stem>none</stem>
        <notations>
          <technical>
            <string>1</string>
            <fret>3</fret>
            </technical>
          </notations>
        </note>
      </measure>
    <measure number="3" width="98.19">
      <note default-x="26.92" default-y="-180.00">
        <pitch>
          <step>C</step>
          <octave>3</octave>
          </pitch>
        <duration>4</duration>
        <voice>1</voice>
        <type>whole</type>
        <stem>none</stem>
        <notations>
          <technical>
            <string>5</string>
            <fret>3</fret>
            </technical>
          </notations>
        <lyric number="1">
          <syllabic>single</syllabic>
          <text>B</text>
          </lyric>
        </note>
      <note default-x="26.92" default-y="-165.00">
        <chord/>
        <pitch>
          <step>E</step>
          <octave>3</octave>
          </pitch>
        <duration>4</duration>
        <voice>1</voice>
        <type>whole</type>
        <stem>none</stem>
        <notations>
          <technical>
            <string>4</string>
            <fret>2</fret>
            </technical>
          </notations>
        </note>
      <note default-x="26.92" default-y="-150.00">
        <chord/>
        <pitch>
          <step>G</step>
          <octave>3</octave>
          </pitch>
        <duration>4</duration>
        <voice>1</voice>
        <type>whole</type>
        <stem>none</stem>
        <notations>
          <technical>
            <string>3</string>
            <fret>0</fret>
            </technical>
          </notations>
        </note>
      <note default-x="26.92" default-y="-135.00">
        <chord/>
        <pitch>
          <step>C</step>
          <octave>4</octave>
          </pitch>
        <duration>4</duration>
        <voice>1</voice>
        <type>whole</type>
        <stem>none</stem>
        <notations>
          <technical>
            <string>2</string>
            <fret>1</fret>
            </technical>
          </notations>
        </note>
      <note default-x="26.92" default-y="-120.00">
        <chord/>
        <pitch>
          <step>E</step>
          <octave>4</octave>
          </pitch>
        <duration>4</duration>
        <voice>1</voice>
        <type>whole</type>
        <stem>none</stem>
        <notations>
          <technical>
            <string>1</string>
            <fret>0</fret>
            </technical>
          </notations>
        </note>
      </measure>
    <measure number="4" width="97.51">
      <note default-x="24.24" default-y="-180.00">
        <pitch>
          <step>A</step>
          <octave>2</octave>
          </pitch>
        <duration>4</duration>
        <voice>1</voice>
        <type>whole</type>
        <stem>none</stem>
        <notations>
          <technical>
            <string>5</string>
            <fret>0</fret>
            </technical>
          </notations>
        <lyric number="1">
          <syllabic>single</syllabic>
          <text>C</text>
          </lyric>
        </note>
      <note default-x="24.24" default-y="-165.00">
        <chord/>
        <pitch>
          <step>D</step>
          <octave>3</octave>
          </pitch>
        <duration>4</duration>
        <voice>1</voice>
        <type>whole</type>
        <stem>none</stem>
        <notations>
          <technical>
            <string>4</string>
            <fret>0</fret>
            </technical>
          </notations>
        </note>
      <note default-x="24.24" default-y="-150.00">
        <chord/>
        <pitch>
          <step>A</step>
          <octave>3</octave>
          </pitch>
        <duration>4</duration>
        <voice>1</voice>
        <type>whole</type>
        <stem>none</stem>
        <notations>
          <technical>
            <string>3</string>
            <fret>2</fret>
            </technical>
          </notations>
        </note>
      <note default-x="24.24" default-y="-135.00">
        <chord/>
        <pitch>
          <step>D</step>
          <octave>4</octave>
          </pitch>
        <duration>4</duration>
        <voice>1</voice>
        <type>whole</type>
        <stem>none</stem>
        <notations>
          <technical>
            <string>2</string>
            <fret>3</fret>
            </technical>
          </notations>
        </note>
      <note default-x="24.24" default-y="-120.00">
        <chord/>
        <pitch>
          <step>F</step>
          <alter>1</alter>
          <octave>4</octave>
          </pitch>
        <duration>4</duration>
        <voice>1</voice>
        <type>whole</type>
        <stem>none</stem>
        <notations>
          <technical>
            <string>1</string>
            <fret>2</fret>
            </technical>
          </notations>
        </note>
      </measure>
    <measure number="5" width="102.19">
      <note default-x="27.92" default-y="-180.00">
        <pitch>
          <step>A</step>
          <octave>2</octave>
          </pitch>
        <duration>4</duration>
        <voice>1</voice>
        <type>whole</type>
        <stem>none</stem>
        <notations>
          <technical>
            <string>5</string>
            <fret>0</fret>
            </technical>
          </notations>
        <lyric number="1">
          <syllabic>single</syllabic>
          <text>D</text>
          </lyric>
        </note>
      <note default-x="27.92" default-y="-165.00">
        <chord/>
        <pitch>
          <step>E</step>
          <octave>3</octave>
          </pitch>
        <duration>4</duration>
        <voice>1</voice>
        <type>whole</type>
        <stem>none</stem>
        <notations>
          <technical>
            <string>4</string>
            <fret>2</fret>
            </technical>
          </notations>
        </note>
      <note default-x="27.92" default-y="-150.00">
        <chord/>
        <pitch>
          <step>A</step>
          <octave>3</octave>
          </pitch>
        <duration>4</duration>
        <voice>1</voice>
        <type>whole</type>
        <stem>none</stem>
        <notations>
          <technical>
            <string>3</string>
            <fret>2</fret>
            </technical>
          </notations>
        </note>
      <note default-x="27.92" default-y="-135.00">
        <chord/>
        <pitch>
          <step>C</step>
          <octave>4</octave>
          </pitch>
        <duration>4</duration>
        <voice>1</voice>
        <type>whole</type>
        <stem>none</stem>
        <notations>
          <technical>
            <string>2</string>
            <fret>1</fret>
            </technical>
          </notations>
        </note>
      <note default-x="27.92" default-y="-120.00">
        <chord/>
        <pitch>
          <step>E</step>
          <octave>4</octave>
          </pitch>
        <duration>4</duration>
        <voice>1</voice>
        <type>whole</type>
        <stem>none</stem>
        <notations>
          <technical>
            <string>1</string>
            <fret>0</fret>
            </technical>
          </notations>
        </note>
      </measure>
    <measure number="6" width="94.19">
      <note default-x="23.92" default-y="-180.00">
        <pitch>
          <step>A</step>
          <octave>2</octave>
          </pitch>
        <duration>4</duration>
        <voice>1</voice>
        <type>whole</type>
        <stem>none</stem>
        <notations>
          <technical>
            <string>5</string>
            <fret>0</fret>
            </technical>
          </notations>
        <lyric number="1">
          <syllabic>single</syllabic>
          <text>E</text>
          </lyric>
        </note>
      <note default-x="23.92" default-y="-165.00">
        <chord/>
        <pitch>
          <step>D</step>
          <octave>3</octave>
          </pitch>
        <duration>4</duration>
        <voice>1</voice>
        <type>whole</type>
        <stem>none</stem>
        <notations>
          <technical>
            <string>4</string>
            <fret>0</fret>
            </technical>
          </notations>
        </note>
      <note default-x="23.92" default-y="-150.00">
        <chord/>
        <pitch>
          <step>A</step>
          <octave>3</octave>
          </pitch>
        <duration>4</duration>
        <voice>1</voice>
        <type>whole</type>
        <stem>none</stem>
        <notations>
          <technical>
            <string>3</string>
            <fret>2</fret>
            </technical>
          </notations>
        </note>
      <note default-x="23.92" default-y="-135.00">
        <chord/>
        <pitch>
          <step>D</step>
          <octave>4</octave>
          </pitch>
        <duration>4</duration>
        <voice>1</voice>
        <type>whole</type>
        <stem>none</stem>
        <notations>
          <technical>
            <string>2</string>
            <fret>3</fret>
            </technical>
          </notations>
        </note>
      <note default-x="23.92" default-y="-120.00">
        <chord/>
        <pitch>
          <step>F</step>
          <octave>4</octave>
          </pitch>
        <duration>4</duration>
        <voice>1</voice>
        <type>whole</type>
        <stem>none</stem>
        <notations>
          <technical>
            <string>1</string>
            <fret>1</fret>
            </technical>
          </notations>
        </note>
      </measure>
    <measure number="7" width="97.51">
      <note default-x="24.24" default-y="-180.00">
        <pitch>
          <step>B</step>
          <octave>2</octave>
          </pitch>
        <duration>4</duration>
        <voice>1</voice>
        <type>whole</type>
        <stem>none</stem>
        <notations>
          <technical>
            <string>5</string>
            <fret>2</fret>
            </technical>
          </notations>
        <lyric number="1">
          <syllabic>single</syllabic>
          <text>F</text>
          </lyric>
        </note>
      <note default-x="24.24" default-y="-165.00">
        <chord/>
        <pitch>
          <step>E</step>
          <octave>3</octave>
          </pitch>
        <duration>4</duration>
        <voice>1</voice>
        <type>whole</type>
        <stem>none</stem>
        <notations>
          <technical>
            <string>4</string>
            <fret>2</fret>
            </technical>
          </notations>
        </note>
      <note default-x="24.24" default-y="-150.00">
        <chord/>
        <pitch>
          <step>G</step>
          <alter>1</alter>
          <octave>3</octave>
          </pitch>
        <duration>4</duration>
        <voice>1</voice>
        <type>whole</type>
        <stem>none</stem>
        <notations>
          <technical>
            <string>3</string>
            <fret>1</fret>
            </technical>
          </notations>
        </note>
      <note default-x="24.24" default-y="-135.00">
        <chord/>
        <pitch>
          <step>B</step>
          <octave>3</octave>
          </pitch>
        <duration>4</duration>
        <voice>1</voice>
        <type>whole</type>
        <stem>none</stem>
        <notations>
          <technical>
            <string>2</string>
            <fret>0</fret>
            </technical>
          </notations>
        </note>
      <note default-x="24.24" default-y="-120.00">
        <chord/>
        <pitch>
          <step>E</step>
          <octave>4</octave>
          </pitch>
        <duration>4</duration>
        <voice>1</voice>
        <type>whole</type>
        <stem>none</stem>
        <notations>
          <technical>
            <string>1</string>
            <fret>0</fret>
            </technical>
          </notations>
        </note>
      </measure>
    <measure number="8" width="98.19">
      <note default-x="25.92" default-y="-180.00">
        <pitch>
          <step>C</step>
          <octave>3</octave>
          </pitch>
        <duration>4</duration>
        <voice>1</voice>
        <type>whole</type>
        <stem>none</stem>
        <notations>
          <technical>
            <string>5</string>
            <fret>3</fret>
            </technical>
          </notations>
        <lyric number="1">
          <syllabic>single</syllabic>
          <text>G</text>
          </lyric>
        </note>
      <note default-x="25.92" default-y="-165.00">
        <chord/>
        <pitch>
          <step>F</step>
          <octave>3</octave>
          </pitch>
        <duration>4</duration>
        <voice>1</voice>
        <type>whole</type>
        <stem>none</stem>
        <notations>
          <technical>
            <string>4</string>
            <fret>3</fret>
            </technical>
          </notations>
        </note>
      <note default-x="25.92" default-y="-150.00">
        <chord/>
        <pitch>
          <step>A</step>
          <octave>3</octave>
          </pitch>
        <duration>4</duration>
        <voice>1</voice>
        <type>whole</type>
        <stem>none</stem>
        <notations>
          <technical>
            <string>3</string>
            <fret>2</fret>
            </technical>
          </notations>
        </note>
      <note default-x="25.92" default-y="-135.00">
        <chord/>
        <pitch>
          <step>C</step>
          <octave>4</octave>
          </pitch>
        <duration>4</duration>
        <voice>1</voice>
        <type>whole</type>
        <stem>none</stem>
        <notations>
          <technical>
            <string>2</string>
            <fret>1</fret>
            </technical>
          </notations>
        </note>
      <note default-x="25.92" default-y="-120.00">
        <chord/>
        <pitch>
          <step>F</step>
          <octave>4</octave>
          </pitch>
        <duration>4</duration>
        <voice>1</voice>
        <type>whole</type>
        <stem>none</stem>
        <notations>
          <technical>
            <string>1</string>
            <fret>1</fret>
            </technical>
          </notations>
        </note>
      </measure>
    <measure number="9" width="103.36">
      <note default-x="24.09" default-y="-180.00">
        <pitch>
          <step>A</step>
          <alter>1</alter>
          <octave>2</octave>
          </pitch>
        <duration>4</duration>
        <voice>1</voice>
        <type>whole</type>
        <stem>none</stem>
        <notations>
          <technical>
            <string>5</string>
            <fret>1</fret>
            </technical>
          </notations>
        <lyric number="1">
          <syllabic>single</syllabic>
          <text>H</text>
          </lyric>
        </note>
      <note default-x="24.09" default-y="-165.00">
        <chord/>
        <pitch>
          <step>F</step>
          <octave>3</octave>
          </pitch>
        <duration>4</duration>
        <voice>1</voice>
        <type>whole</type>
        <stem>none</stem>
        <notations>
          <technical>
            <string>4</string>
            <fret>3</fret>
            </technical>
          </notations>
        </note>
      <note default-x="24.09" default-y="-150.00">
        <chord/>
        <pitch>
          <step>A</step>
          <alter>1</alter>
          <octave>3</octave>
          </pitch>
        <duration>4</duration>
        <voice>1</voice>
        <type>whole</type>
        <stem>none</stem>
        <notations>
          <technical>
            <string>3</string>
            <fret>3</fret>
            </technical>
          </notations>
        </note>
      <note default-x="24.09" default-y="-135.00">
        <chord/>
        <pitch>
          <step>D</step>
          <octave>4</octave>
          </pitch>
        <duration>4</duration>
        <voice>1</voice>
        <type>whole</type>
        <stem>none</stem>
        <notations>
          <technical>
            <string>2</string>
            <fret>3</fret>
            </technical>
          </notations>
        </note>
      <note default-x="24.09" default-y="-120.00">
        <chord/>
        <pitch>
          <step>F</step>
          <octave>4</octave>
          </pitch>
        <duration>4</duration>
        <voice>1</voice>
        <type>whole</type>
        <stem>none</stem>
        <notations>
          <technical>
            <string>1</string>
            <fret>1</fret>
            </technical>
          </notations>
        </note>
      </measure>
    <measure number="10" width="143.12">
      <print new-system="yes">
        <staff-layout number="1">
          <staff-distance>80.00</staff-distance>
          </staff-layout>
        </print>
      <note default-x="71.91" default-y="-180.00">
        <pitch>
          <step>A</step>
          <octave>2</octave>
          </pitch>
        <duration>4</duration>
        <voice>1</voice>
        <type>whole</type>
        <stem>none</stem>
        <notations>
          <technical>
            <string>5</string>
            <fret>0</fret>
            </technical>
          </notations>
        <lyric number="1">
          <syllabic>single</syllabic>
          <text>I</text>
          </lyric>
        </note>
      <note default-x="71.91" default-y="-165.00">
        <chord/>
        <pitch>
          <step>E</step>
          <octave>3</octave>
          </pitch>
        <duration>4</duration>
        <voice>1</voice>
        <type>whole</type>
        <stem>none</stem>
        <notations>
          <technical>
            <string>4</string>
            <fret>2</fret>
            </technical>
          </notations>
        </note>
      <note default-x="71.91" default-y="-150.00">
        <chord/>
        <pitch>
          <step>A</step>
          <octave>3</octave>
          </pitch>
        <duration>4</duration>
        <voice>1</voice>
        <type>whole</type>
        <stem>none</stem>
        <notations>
          <technical>
            <string>3</string>
            <fret>2</fret>
            </technical>
          </notations>
        </note>
      <note default-x="71.91" default-y="-135.00">
        <chord/>
        <pitch>
          <step>D</step>
          <alter>-1</alter>
          <octave>4</octave>
          </pitch>
        <duration>4</duration>
        <voice>1</voice>
        <type>whole</type>
        <stem>none</stem>
        <notations>
          <technical>
            <string>2</string>
            <fret>2</fret>
            </technical>
          </notations>
        </note>
      <note default-x="71.91" default-y="-120.00">
        <chord/>
        <pitch>
          <step>E</step>
          <octave>4</octave>
          </pitch>
        <duration>4</duration>
        <voice>1</voice>
        <type>whole</type>
        <stem>none</stem>
        <notations>
          <technical>
            <string>1</string>
            <fret>0</fret>
            </technical>
          </notations>
        </note>
      </measure>
    <measure number="11" width="115.96">
      <note default-x="35.16" default-y="-180.00">
        <pitch>
          <step>A</step>
          <alter>1</alter>
          <octave>2</octave>
          </pitch>
        <duration>4</duration>
        <voice>1</voice>
        <type>whole</type>
        <stem>none</stem>
        <notations>
          <technical>
            <string>5</string>
            <fret>1</fret>
            </technical>
          </notations>
        <lyric number="1">
          <syllabic>single</syllabic>
          <text>K</text>
          </lyric>
        </note>
      <note default-x="35.16" default-y="-165.00">
        <chord/>
        <pitch>
          <step>F</step>
          <octave>3</octave>
          </pitch>
        <duration>4</duration>
        <voice>1</voice>
        <type>whole</type>
        <stem>none</stem>
        <notations>
          <technical>
            <string>4</string>
            <fret>3</fret>
            </technical>
          </notations>
        </note>
      <note default-x="35.16" default-y="-150.00">
        <chord/>
        <pitch>
          <step>A</step>
          <alter>1</alter>
          <octave>3</octave>
          </pitch>
        <duration>4</duration>
        <voice>1</voice>
        <type>whole</type>
        <stem>none</stem>
        <notations>
          <technical>
            <string>3</string>
            <fret>3</fret>
            </technical>
          </notations>
        </note>
      <note default-x="35.16" default-y="-135.00">
        <chord/>
        <pitch>
          <step>C</step>
          <alter>1</alter>
          <octave>4</octave>
          </pitch>
        <duration>4</duration>
        <voice>1</voice>
        <type>whole</type>
        <stem>none</stem>
        <notations>
          <technical>
            <string>2</string>
            <fret>2</fret>
            </technical>
          </notations>
        </note>
      <note default-x="35.16" default-y="-120.00">
        <chord/>
        <pitch>
          <step>F</step>
          <octave>4</octave>
          </pitch>
        <duration>4</duration>
        <voice>1</voice>
        <type>whole</type>
        <stem>none</stem>
        <notations>
          <technical>
            <string>1</string>
            <fret>1</fret>
            </technical>
          </notations>
        </note>
      </measure>
    <measure number="12" width="95.71">
      <note default-x="22.09" default-y="-180.00">
        <pitch>
          <step>C</step>
          <octave>3</octave>
          </pitch>
        <duration>4</duration>
        <voice>1</voice>
        <type>whole</type>
        <stem>none</stem>
        <notations>
          <technical>
            <string>5</string>
            <fret>3</fret>
            </technical>
          </notations>
        <lyric number="1">
          <syllabic>single</syllabic>
          <text>L</text>
          </lyric>
        </note>
      <note default-x="22.09" default-y="-165.00">
        <chord/>
        <pitch>
          <step>D</step>
          <alter>1</alter>
          <octave>3</octave>
          </pitch>
        <duration>4</duration>
        <voice>1</voice>
        <type>whole</type>
        <stem>none</stem>
        <notations>
          <technical>
            <string>4</string>
            <fret>1</fret>
            </technical>
          </notations>
        </note>
      <note default-x="22.09" default-y="-150.00">
        <chord/>
        <pitch>
          <step>G</step>
          <octave>3</octave>
          </pitch>
        <duration>4</duration>
        <voice>1</voice>
        <type>whole</type>
        <stem>none</stem>
        <notations>
          <technical>
            <string>3</string>
            <fret>0</fret>
            </technical>
          </notations>
        </note>
      <note default-x="22.09" default-y="-135.00">
        <chord/>
        <pitch>
          <step>D</step>
          <alter>1</alter>
          <octave>4</octave>
          </pitch>
        <duration>4</duration>
        <voice>1</voice>
        <type>whole</type>
        <stem>none</stem>
        <notations>
          <technical>
            <string>2</string>
            <fret>4</fret>
            </technical>
          </notations>
        </note>
      <note default-x="22.09" default-y="-120.00">
        <chord/>
        <pitch>
          <step>G</step>
          <octave>4</octave>
          </pitch>
        <duration>4</duration>
        <voice>1</voice>
        <type>whole</type>
        <stem>none</stem>
        <notations>
          <technical>
            <string>1</string>
            <fret>3</fret>
            </technical>
          </notations>
        </note>
      </measure>
    <measure number="13" width="116.96">
      <note default-x="33.16" default-y="-180.00">
        <pitch>
          <step>A</step>
          <alter>1</alter>
          <octave>2</octave>
          </pitch>
        <duration>4</duration>
        <voice>1</voice>
        <type>whole</type>
        <stem>none</stem>
        <notations>
          <technical>
            <string>5</string>
            <fret>1</fret>
            </technical>
          </notations>
        <lyric number="1">
          <syllabic>single</syllabic>
          <text>M</text>
          </lyric>
        </note>
      <note default-x="33.16" default-y="-165.00">
        <chord/>
        <pitch>
          <step>D</step>
          <alter>1</alter>
          <octave>3</octave>
          </pitch>
        <duration>4</duration>
        <voice>1</voice>
        <type>whole</type>
        <stem>none</stem>
        <notations>
          <technical>
            <string>4</string>
            <fret>1</fret>
            </technical>
          </notations>
        </note>
      <note default-x="33.16" default-y="-150.00">
        <chord/>
        <pitch>
          <step>A</step>
          <alter>1</alter>
          <octave>3</octave>
          </pitch>
        <duration>4</duration>
        <voice>1</voice>
        <type>whole</type>
        <stem>none</stem>
        <notations>
          <technical>
            <string>3</string>
            <fret>3</fret>
            </technical>
          </notations>
        </note>
      <note default-x="33.16" default-y="-135.00">
        <chord/>
        <pitch>
          <step>D</step>
          <alter>1</alter>
          <octave>4</octave>
          </pitch>
        <duration>4</duration>
        <voice>1</voice>
        <type>whole</type>
        <stem>none</stem>
        <notations>
          <technical>
            <string>2</string>
            <fret>4</fret>
            </technical>
          </notations>
        </note>
      <note default-x="33.16" default-y="-120.00">
        <chord/>
        <pitch>
          <step>G</step>
          <octave>4</octave>
          </pitch>
        <duration>4</duration>
        <voice>1</voice>
        <type>whole</type>
        <stem>none</stem>
        <notations>
          <technical>
            <string>1</string>
            <fret>3</fret>
            </technical>
          </notations>
        </note>
      </measure>
    <measure number="14" width="140.03">
      <note default-x="46.23" default-y="-180.00">
        <pitch>
          <step>A</step>
          <alter>1</alter>
          <octave>2</octave>
          </pitch>
        <duration>4</duration>
        <voice>1</voice>
        <type>whole</type>
        <stem>none</stem>
        <notations>
          <technical>
            <string>5</string>
            <fret>1</fret>
            </technical>
          </notations>
        <lyric number="1">
          <syllabic>single</syllabic>
          <text>M+</text>
          </lyric>
        </note>
      <note default-x="46.23" default-y="-165.00">
        <chord/>
        <pitch>
          <step>D</step>
          <alter>1</alter>
          <octave>3</octave>
          </pitch>
        <duration>4</duration>
        <voice>1</voice>
        <type>whole</type>
        <stem>none</stem>
        <notations>
          <technical>
            <string>4</string>
            <fret>1</fret>
            </technical>
          </notations>
        </note>
      <note default-x="46.23" default-y="-150.00">
        <chord/>
        <pitch>
          <step>A</step>
          <alter>1</alter>
          <octave>3</octave>
          </pitch>
        <duration>4</duration>
        <voice>1</voice>
        <type>whole</type>
        <stem>none</stem>
        <notations>
          <technical>
            <string>3</string>
            <fret>3</fret>
            </technical>
          </notations>
        </note>
      <note default-x="46.23" default-y="-135.00">
        <chord/>
        <pitch>
          <step>D</step>
          <alter>1</alter>
          <octave>4</octave>
          </pitch>
        <duration>4</duration>
        <voice>1</voice>
        <type>whole</type>
        <stem>none</stem>
        <notations>
          <technical>
            <string>2</string>
            <fret>4</fret>
            </technical>
          </notations>
        </note>
      <note default-x="46.23" default-y="-120.00">
        <chord/>
        <pitch>
          <step>F</step>
          <alter>1</alter>
          <octave>4</octave>
          </pitch>
        <duration>4</duration>
        <voice>1</voice>
        <type>whole</type>
        <stem>none</stem>
        <notations>
          <technical>
            <string>1</string>
            <fret>2</fret>
            </technical>
          </notations>
        </note>
      </measure>
    <measure number="15" width="117.96">
      <note default-x="35.16" default-y="-180.00">
        <pitch>
          <step>C</step>
          <octave>3</octave>
          </pitch>
        <duration>4</duration>
        <voice>1</voice>
        <type>whole</type>
        <stem>none</stem>
        <notations>
          <technical>
            <string>5</string>
            <fret>3</fret>
            </technical>
          </notations>
        <lyric number="1">
          <syllabic>single</syllabic>
          <text>N</text>
          </lyric>
        </note>
      <note default-x="35.16" default-y="-165.00">
        <chord/>
        <pitch>
          <step>D</step>
          <alter>1</alter>
          <octave>3</octave>
          </pitch>
        <duration>4</duration>
        <voice>1</voice>
        <type>whole</type>
        <stem>none</stem>
        <notations>
          <technical>
            <string>4</string>
            <fret>1</fret>
            </technical>
          </notations>
        </note>
      <note default-x="35.16" default-y="-150.00">
        <chord/>
        <pitch>
          <step>G</step>
          <alter>1</alter>
          <octave>3</octave>
          </pitch>
        <duration>4</duration>
        <voice>1</voice>
        <type>whole</type>
        <stem>none</stem>
        <notations>
          <technical>
            <string>3</string>
            <fret>1</fret>
            </technical>
          </notations>
        </note>
      <note default-x="35.16" default-y="-135.00">
        <chord/>
        <pitch>
          <step>C</step>
          <octave>4</octave>
          </pitch>
        <duration>4</duration>
        <voice>1</voice>
        <type>whole</type>
        <stem>none</stem>
        <notations>
          <technical>
            <string>2</string>
            <fret>1</fret>
            </technical>
          </notations>
        </note>
      <note default-x="35.16" default-y="-120.00">
        <chord/>
        <pitch>
          <step>G</step>
          <alter>1</alter>
          <octave>4</octave>
          </pitch>
        <duration>4</duration>
        <voice>1</voice>
        <type>whole</type>
        <stem>none</stem>
        <notations>
          <technical>
            <string>1</string>
            <fret>4</fret>
            </technical>
          </notations>
        </note>
      </measure>
    <measure number="16" width="131.26">
      <note default-x="37.45" default-y="-180.00">
        <pitch>
          <step>B</step>
          <octave>2</octave>
          </pitch>
        <duration>4</duration>
        <voice>1</voice>
        <type>whole</type>
        <stem>none</stem>
        <notations>
          <technical>
            <string>5</string>
            <fret>2</fret>
            </technical>
          </notations>
        <lyric number="1">
          <syllabic>single</syllabic>
          <text>N+</text>
          </lyric>
        </note>
      <note default-x="37.45" default-y="-165.00">
        <chord/>
        <pitch>
          <step>D</step>
          <alter>1</alter>
          <octave>3</octave>
          </pitch>
        <duration>4</duration>
        <voice>1</voice>
        <type>whole</type>
        <stem>none</stem>
        <notations>
          <technical>
            <string>4</string>
            <fret>1</fret>
            </technical>
          </notations>
        </note>
      <note default-x="37.45" default-y="-150.00">
        <chord/>
        <pitch>
          <step>G</step>
          <alter>1</alter>
          <octave>3</octave>
          </pitch>
        <duration>4</duration>
        <voice>1</voice>
        <type>whole</type>
        <stem>none</stem>
        <notations>
          <technical>
            <string>3</string>
            <fret>1</fret>
            </technical>
          </notations>
        </note>
      <note default-x="37.45" default-y="-135.00">
        <chord/>
        <pitch>
          <step>E</step>
          <alter>-1</alter>
          <octave>4</octave>
          </pitch>
        <duration>4</duration>
        <voice>1</voice>
        <type>whole</type>
        <stem>none</stem>
        <notations>
          <technical>
            <string>2</string>
            <fret>4</fret>
            </technical>
          </notations>
        </note>
      <note default-x="37.45" default-y="-120.00">
        <chord/>
        <pitch>
          <step>G</step>
          <alter>1</alter>
          <octave>4</octave>
          </pitch>
        <duration>4</duration>
        <voice>1</voice>
        <type>whole</type>
        <stem>none</stem>
        <notations>
          <technical>
            <string>1</string>
            <fret>4</fret>
            </technical>
          </notations>
        </note>
      </measure>
    <measure number="17" width="97.90">
      <note default-x="24.09" default-y="-180.00">
        <pitch>
          <step>A</step>
          <alter>1</alter>
          <octave>2</octave>
          </pitch>
        <duration>4</duration>
        <voice>1</voice>
        <type>whole</type>
        <stem>none</stem>
        <notations>
          <technical>
            <string>5</string>
            <fret>1</fret>
            </technical>
          </notations>
        <lyric number="1">
          <syllabic>single</syllabic>
          <text>O</text>
          </lyric>
        </note>
      <note default-x="24.09" default-y="-165.00">
        <chord/>
        <pitch>
          <step>D</step>
          <octave>3</octave>
          </pitch>
        <duration>4</duration>
        <voice>1</voice>
        <type>whole</type>
        <stem>none</stem>
        <notations>
          <technical>
            <string>4</string>
            <fret>0</fret>
            </technical>
          </notations>
        </note>
      <note default-x="24.09" default-y="-150.00">
        <chord/>
        <pitch>
          <step>G</step>
          <octave>3</octave>
          </pitch>
        <duration>4</duration>
        <voice>1</voice>
        <type>whole</type>
        <stem>none</stem>
        <notations>
          <technical>
            <string>3</string>
            <fret>0</fret>
            </technical>
          </notations>
        </note>
      <note default-x="24.09" default-y="-135.00">
        <chord/>
        <pitch>
          <step>D</step>
          <octave>4</octave>
          </pitch>
        <duration>4</duration>
        <voice>1</voice>
        <type>whole</type>
        <stem>none</stem>
        <notations>
          <technical>
            <string>2</string>
            <fret>3</fret>
            </technical>
          </notations>
        </note>
      <note default-x="24.09" default-y="-120.00">
        <chord/>
        <pitch>
          <step>G</step>
          <octave>4</octave>
          </pitch>
        <duration>4</duration>
        <voice>1</voice>
        <type>whole</type>
        <stem>none</stem>
        <notations>
          <technical>
            <string>1</string>
            <fret>3</fret>
            </technical>
          </notations>
        </note>
      </measure>
    <measure number="18" width="93.71">
      <note default-x="22.09" default-y="-180.00">
        <pitch>
          <step>C</step>
          <octave>3</octave>
          </pitch>
        <duration>4</duration>
        <voice>1</voice>
        <type>whole</type>
        <stem>none</stem>
        <notations>
          <technical>
            <string>5</string>
            <fret>3</fret>
            </technical>
          </notations>
        <lyric number="1">
          <syllabic>single</syllabic>
          <text>P</text>
          </lyric>
        </note>
      <note default-x="22.09" default-y="-165.00">
        <chord/>
        <pitch>
          <step>F</step>
          <octave>3</octave>
          </pitch>
        <duration>4</duration>
        <voice>1</voice>
        <type>whole</type>
        <stem>none</stem>
        <notations>
          <technical>
            <string>4</string>
            <fret>3</fret>
            </technical>
          </notations>
        </note>
      <note default-x="22.09" default-y="-150.00">
        <chord/>
        <pitch>
          <step>G</step>
          <alter>1</alter>
          <octave>3</octave>
          </pitch>
        <duration>4</duration>
        <voice>1</voice>
        <type>whole</type>
        <stem>none</stem>
        <notations>
          <technical>
            <string>3</string>
            <fret>1</fret>
            </technical>
          </notations>
        </note>
      <note default-x="22.09" default-y="-135.00">
        <chord/>
        <pitch>
          <step>C</step>
          <octave>4</octave>
          </pitch>
        <duration>4</duration>
        <voice>1</voice>
        <type>whole</type>
        <stem>none</stem>
        <notations>
          <technical>
            <string>2</string>
            <fret>1</fret>
            </technical>
          </notations>
        </note>
      <note default-x="22.09" default-y="-120.00">
        <chord/>
        <pitch>
          <step>F</step>
          <octave>4</octave>
          </pitch>
        <duration>4</duration>
        <voice>1</voice>
        <type>whole</type>
        <stem>none</stem>
        <notations>
          <technical>
            <string>1</string>
            <fret>1</fret>
            </technical>
          </notations>
        </note>
      </measure>
    <measure number="19" width="535.20">
      <print new-system="yes">
        <staff-layout number="1">
          <staff-distance>80.00</staff-distance>
          </staff-layout>
        </print>
      <note default-x="80.83" default-y="-180.00">
        <pitch>
          <step>C</step>
          <alter>1</alter>
          <octave>3</octave>
          </pitch>
        <duration>4</duration>
        <voice>1</voice>
        <type>whole</type>
        <stem>none</stem>
        <notations>
          <technical>
            <string>5</string>
            <fret>4</fret>
            </technical>
          </notations>
        <lyric number="1">
          <syllabic>single</syllabic>
          <text>&amp;</text>
          </lyric>
        </note>
      <note default-x="80.83" default-y="-165.00">
        <chord/>
        <pitch>
          <step>F</step>
          <octave>3</octave>
          </pitch>
        <duration>4</duration>
        <voice>1</voice>
        <type>whole</type>
        <stem>none</stem>
        <notations>
          <technical>
            <string>4</string>
            <fret>3</fret>
            </technical>
          </notations>
        </note>
      <note default-x="80.83" default-y="-150.00">
        <chord/>
        <pitch>
          <step>G</step>
          <alter>1</alter>
          <octave>3</octave>
          </pitch>
        <duration>4</duration>
        <voice>1</voice>
        <type>whole</type>
        <stem>none</stem>
        <notations>
          <technical>
            <string>3</string>
            <fret>1</fret>
            </technical>
          </notations>
        </note>
      <note default-x="80.83" default-y="-135.00">
        <chord/>
        <pitch>
          <step>C</step>
          <alter>1</alter>
          <octave>4</octave>
          </pitch>
        <duration>4</duration>
        <voice>1</voice>
        <type>whole</type>
        <stem>none</stem>
        <notations>
          <technical>
            <string>2</string>
            <fret>2</fret>
            </technical>
          </notations>
        </note>
      <note default-x="80.83" default-y="-120.00">
        <chord/>
        <pitch>
          <step>F</step>
          <octave>4</octave>
          </pitch>
        <duration>4</duration>
        <voice>1</voice>
        <type>whole</type>
        <stem>none</stem>
        <notations>
          <technical>
            <string>1</string>
            <fret>1</fret>
            </technical>
          </notations>
        </note>
      </measure>
    <measure number="20" width="517.42">
      <note default-x="39.45" default-y="-180.00">
        <pitch>
          <step>C</step>
          <alter>1</alter>
          <octave>3</octave>
          </pitch>
        <duration>4</duration>
        <voice>1</voice>
        <type>whole</type>
        <stem>none</stem>
        <notations>
          <technical>
            <string>5</string>
            <fret>4</fret>
            </technical>
          </notations>
        <lyric number="1">
          <syllabic>single</syllabic>
          <text>&amp;+</text>
          </lyric>
        </note>
      <note default-x="39.45" default-y="-165.00">
        <chord/>
        <pitch>
          <step>E</step>
          <octave>3</octave>
          </pitch>
        <duration>4</duration>
        <voice>1</voice>
        <type>whole</type>
        <stem>none</stem>
        <notations>
          <technical>
            <string>4</string>
            <fret>2</fret>
            </technical>
          </notations>
        </note>
      <note default-x="39.45" default-y="-150.00">
        <chord/>
        <pitch>
          <step>G</step>
          <alter>1</alter>
          <octave>3</octave>
          </pitch>
        <duration>4</duration>
        <voice>1</voice>
        <type>whole</type>
        <stem>none</stem>
        <notations>
          <technical>
            <string>3</string>
            <fret>1</fret>
            </technical>
          </notations>
        </note>
      <note default-x="39.45" default-y="-135.00">
        <chord/>
        <pitch>
          <step>C</step>
          <alter>1</alter>
          <octave>4</octave>
          </pitch>
        <duration>4</duration>
        <voice>1</voice>
        <type>whole</type>
        <stem>none</stem>
        <notations>
          <technical>
            <string>2</string>
            <fret>2</fret>
            </technical>
          </notations>
        </note>
      <note default-x="39.45" default-y="-120.00">
        <chord/>
        <pitch>
          <step>E</step>
          <octave>4</octave>
          </pitch>
        <duration>4</duration>
        <voice>1</voice>
        <type>whole</type>
        <stem>none</stem>
        <notations>
          <technical>
            <string>1</string>
            <fret>0</fret>
            </technical>
          </notations>
        </note>
      <barline location="right">
        <bar-style>light-heavy</bar-style>
        </barline>
      </measure>
    </part>
  <part id="P3">
    <measure number="1" width="159.27">
      <print>
        <staff-layout number="1">
          <staff-distance>65.00</staff-distance>
          </staff-layout>
        </print>
      <attributes>
        <divisions>1</divisions>
        <key>
          <fifths>0</fifths>
          </key>
        <time>
          <beats>4</beats>
          <beat-type>4</beat-type>
          </time>
        <clef>
          <sign>TAB</sign>
          <line>5</line>
          </clef>
        <staff-details>
          <staff-lines>5</staff-lines>
          <staff-tuning line="1">
            <tuning-step>E</tuning-step>
            <tuning-octave>2</tuning-octave>
            </staff-tuning>
          <staff-tuning line="2">
            <tuning-step>A</tuning-step>
            <tuning-octave>2</tuning-octave>
            </staff-tuning>
          <staff-tuning line="3">
            <tuning-step>D</tuning-step>
            <tuning-octave>3</tuning-octave>
            </staff-tuning>
          <staff-tuning line="4">
            <tuning-step>G</tuning-step>
            <tuning-octave>3</tuning-octave>
            </staff-tuning>
          <staff-tuning line="5">
            <tuning-step>B</tuning-step>
            <tuning-octave>3</tuning-octave>
            </staff-tuning>
          <staff-tuning line="6">
            <tuning-step>E</tuning-step>
            <tuning-octave>4</tuning-octave>
            </staff-tuning>
          </staff-details>
        </attributes>
      <note>
        <rest/>
        <duration>1</duration>
        <voice>1</voice>
        <type>quarter</type>
        </note>
      <note>
        <rest/>
        <duration>1</duration>
        <voice>1</voice>
        <type>quarter</type>
        </note>
      <note>
        <rest/>
        <duration>2</duration>
        <voice>1</voice>
        <type>half</type>
        </note>
      </measure>
    <measure number="2" width="102.19">
      <note>
        <rest/>
        <duration>4</duration>
        <voice>1</voice>
        </note>
      </measure>
    <measure number="3" width="98.19">
      <note>
        <rest/>
        <duration>4</duration>
        <voice>1</voice>
        </note>
      </measure>
    <measure number="4" width="97.51">
      <note>
        <rest/>
        <duration>4</duration>
        <voice>1</voice>
        </note>
      </measure>
    <measure number="5" width="102.19">
      <note>
        <rest/>
        <duration>4</duration>
        <voice>1</voice>
        </note>
      </measure>
    <measure number="6" width="94.19">
      <note>
        <rest/>
        <duration>4</duration>
        <voice>1</voice>
        </note>
      </measure>
    <measure number="7" width="97.51">
      <note>
        <rest/>
        <duration>4</duration>
        <voice>1</voice>
        </note>
      </measure>
    <measure number="8" width="98.19">
      <note>
        <rest/>
        <duration>4</duration>
        <voice>1</voice>
        </note>
      </measure>
    <measure number="9" width="103.36">
      <note>
        <rest/>
        <duration>4</duration>
        <voice>1</voice>
        </note>
      </measure>
    <measure number="10" width="143.12">
      <print new-system="yes">
        <staff-layout number="1">
          <staff-distance>65.00</staff-distance>
          </staff-layout>
        </print>
      <note>
        <rest/>
        <duration>4</duration>
        <voice>1</voice>
        </note>
      </measure>
    <measure number="11" width="115.96">
      <note>
        <rest/>
        <duration>4</duration>
        <voice>1</voice>
        </note>
      </measure>
    <measure number="12" width="95.71">
      <note>
        <rest/>
        <duration>4</duration>
        <voice>1</voice>
        </note>
      </measure>
    <measure number="13" width="116.96">
      <note>
        <rest/>
        <duration>4</duration>
        <voice>1</voice>
        </note>
      </measure>
    <measure number="14" width="140.03">
      <note>
        <rest/>
        <duration>4</duration>
        <voice>1</voice>
        </note>
      </measure>
    <measure number="15" width="117.96">
      <note>
        <rest/>
        <duration>4</duration>
        <voice>1</voice>
        </note>
      </measure>
    <measure number="16" width="131.26">
      <note>
        <rest/>
        <duration>4</duration>
        <voice>1</voice>
        </note>
      </measure>
    <measure number="17" width="97.90">
      <note>
        <rest/>
        <duration>4</duration>
        <voice>1</voice>
        </note>
      </measure>
    <measure number="18" width="93.71">
      <note>
        <rest/>
        <duration>4</duration>
        <voice>1</voice>
        </note>
      </measure>
    <measure number="19" width="535.20">
      <print new-system="yes">
        <staff-layout number="1">
          <staff-distance>65.00</staff-distance>
          </staff-layout>
        </print>
      <note>
        <rest/>
        <duration>4</duration>
        <voice>1</voice>
        </note>
      </measure>
    <measure number="20" width="517.42">
      <note>
        <rest/>
        <duration>4</duration>
        <voice>1</voice>
        </note>
      <barline location="right">
        <bar-style>light-heavy</bar-style>
        </barline>
      </measure>
    </part>
  </score-partwise>
